<svg xmlns="http://www.w3.org/2000/svg" viewBox="0 0 289.14 289.13"><defs><style>.cls-1{fill:#55575a;}</style></defs><g id="Layer_2" data-name="Layer 2"><g id="Layer_1-2" data-name="Layer 1"><path class="cls-1" d="M161.53,140.57a62.51,62.51,0,0,0,12.19-3.22V155a23.61,23.61,0,0,1-4.84,15,30.78,30.78,0,0,1-13,9.5,48.08,48.08,0,0,1-18.2,3.3q-13.68,0-20.66-5t-7-14.52q0-9.85,8-14.24t23.32-5.86Q152.22,142.2,161.53,140.57Z"/><path class="cls-1" d="M237.32,51.23H51.82a.58.58,0,0,0-.59.58V237.32a.59.59,0,0,0,.59.59h185.5a.59.59,0,0,0,.59-.59V51.81A.58.58,0,0,0,237.32,51.23ZM178.1,191.43a9.18,9.18,0,0,1-1.21-2,36,36,0,0,1-1.68-3.86,24.42,24.42,0,0,1-1-5.21c-.08-.84-.15-1.77-.19-2.77a30.36,30.36,0,0,1-6.89,6.82,43.72,43.72,0,0,1-13.59,6.47,62.22,62.22,0,0,1-17.59,2.32,52.48,52.48,0,0,1-19.82-3.44,28.65,28.65,0,0,1-13.08-10,26.91,26.91,0,0,1-4.61-15.87q0-9.39,4.84-15.68t13.82-9.82a79.54,79.54,0,0,1,21.27-4.75q18.9-1.95,27.13-3.95t8.24-6.47v-1.3A17,17,0,0,0,165.9,107q-7.82-5.3-22.24-5.3-15.07,0-23.5,6t-8.43,17.68H100.38a31.12,31.12,0,0,1,5.4-18.38A33.73,33.73,0,0,1,121,95.24q9.76-4,22.8-4a58.28,58.28,0,0,1,21.13,3.63,34.53,34.53,0,0,1,14.94,10.56q5.53,6.95,5.54,17.08v51.48c0,2.11.09,4.12.27,6.05a33.32,33.32,0,0,0,.84,5,20.72,20.72,0,0,0,1.77,4.28,11.53,11.53,0,0,0,1.49,2.14Z"/><path class="cls-1" d="M263.72,22.35H25.42a3.07,3.07,0,0,0-3.07,3.07V263.71a3.08,3.08,0,0,0,3.07,3.08h238.3a3.08,3.08,0,0,0,3.07-3.08V25.42A3.07,3.07,0,0,0,263.72,22.35Zm-17,215a9.37,9.37,0,0,1-9.36,9.36H51.82a9.37,9.37,0,0,1-9.36-9.36V51.81a9.36,9.36,0,0,1,9.36-9.35h185.5a9.36,9.36,0,0,1,9.36,9.35Z"/><path class="cls-1" d="M280.63,0H8.51A8.51,8.51,0,0,0,0,8.5V280.63a8.5,8.5,0,0,0,8.51,8.5H280.63a8.5,8.5,0,0,0,8.51-8.5V8.5A8.51,8.51,0,0,0,280.63,0Zm-5.07,263.71a11.86,11.86,0,0,1-11.84,11.85H25.42a11.86,11.86,0,0,1-11.84-11.85V25.42A11.85,11.85,0,0,1,25.42,13.58h238.3a11.85,11.85,0,0,1,11.84,11.84Z"/></g></g></svg>