<svg xmlns="http://www.w3.org/2000/svg" viewBox="0 0 287 213.66"><defs><style>.cls-1{fill:#fff;}.cls-2{fill:#55575a;}.cls-3{fill:#dc563d;}.cls-4{fill:#d1d3d4;}.cls-5{fill:#231f20;}.cls-6{fill:#f2f2f2;}</style></defs><g id="Layer_2" data-name="Layer 2"><g id="Layer_1-2" data-name="Layer 1"><path class="cls-1" d="M88.45,15.67h81V65.91a3.85,3.85,0,0,1-3.84,3.86H92.3a3.85,3.85,0,0,1-3.85-3.85h0Z"/><path class="cls-2" d="M165.56,70.23H92.3A4.33,4.33,0,0,1,88,65.9V15.67a.47.47,0,0,1,.46-.47h81a.47.47,0,0,1,.47.47h0V65.9a4.33,4.33,0,0,1-4.32,4.33ZM88.91,16.14V65.87a3.41,3.41,0,0,0,3.39,3.4h73.26a3.4,3.4,0,0,0,3.4-3.4h0V16.14Z"/><path class="cls-1" d="M92.3,8.49h73.26a3.85,3.85,0,0,1,3.85,3.85h0v3.33h-81V12.34a3.85,3.85,0,0,1,3.85-3.85Z"/><path class="cls-2" d="M169.41,16.14h-81a.47.47,0,0,1-.46-.47V12.34A4.31,4.31,0,0,1,92.25,8h73.31a4.33,4.33,0,0,1,4.3,4.31v3.33a.47.47,0,0,1-.44.5Zm-80.5-.94H169V12.34A3.41,3.41,0,0,0,165.56,9H92.3a3.41,3.41,0,0,0-3.39,3.39Z"/><circle class="cls-3" cx="108.38" cy="30.56" r="5.22"/><path class="cls-3" d="M98.9,46.33a9.5,9.5,0,0,1,19,0Z"/><circle class="cls-3" cx="149.48" cy="30.56" r="5.22"/><path class="cls-3" d="M140,46.33a9.5,9.5,0,1,1,19,0Z"/><path class="cls-2" d="M137.84,31H125.66a.47.47,0,0,1-.47-.47h0a.48.48,0,0,1,.47-.47h11.1l-2.42-2.54a.46.46,0,0,1,0-.65h0a.46.46,0,0,1,.65,0l3.17,3.34a.43.43,0,0,1,.09.49A.47.47,0,0,1,137.84,31Z"/><path class="cls-2" d="M134.79,34a.48.48,0,0,1-.47-.47.5.5,0,0,1,.14-.33l3-3a.46.46,0,0,1,.65,0h0a.49.49,0,0,1,0,.64l-3,3A.5.5,0,0,1,134.79,34Z"/><path class="cls-2" d="M132.06,34.94H119.88a.48.48,0,0,1-.46-.48.49.49,0,0,1,.13-.31l3.16-3.32a.46.46,0,0,1,.66,0,.47.47,0,0,1,0,.59h0L121,34h11.1a.48.48,0,0,1,.47.47.47.47,0,0,1-.47.47h0Z"/><path class="cls-2" d="M122.92,37.9a.48.48,0,0,1-.32-.13l-3-3a.47.47,0,0,1,.08-.66.48.48,0,0,1,.58,0l3,3a.47.47,0,0,1,0,.64h0A.49.49,0,0,1,122.92,37.9Z"/><path class="cls-4" d="M153.07,52.48H104.79a.51.51,0,0,1-.51-.51h0a.53.53,0,0,1,.51-.51h48.28a.51.51,0,0,1,.2,1h-.2Z"/><path class="cls-4" d="M153.07,55.91H104.79a.51.51,0,0,1-.51-.51h0a.53.53,0,0,1,.51-.51h48.28a.51.51,0,0,1,.2,1h-.2Z"/><path class="cls-4" d="M148.11,59.38H104.79a.51.51,0,0,1-.51-.51h0a.53.53,0,0,1,.51-.51h43.32a.53.53,0,0,1,.51.51A.51.51,0,0,1,148.11,59.38Z"/><circle class="cls-3" cx="94.14" cy="12.08" r="1.24"/><circle class="cls-4" cx="98.51" cy="12.08" r="1.24"/><circle class="cls-4" cx="102.87" cy="12.08" r="1.24"/><path class="cls-1" d="M182,11.34H286.46v123.3a5.07,5.07,0,0,1-5.06,5.08H187a5.07,5.07,0,0,1-5.07-5.07h0V11.34Z"/><path class="cls-2" d="M281.36,139.92H187a5.59,5.59,0,0,1-5.57-5.58V11a.5.5,0,0,1,.5-.5h104.5a.5.5,0,0,1,.51.49h0V134.34A5.6,5.6,0,0,1,281.36,139.92ZM182.46,11.54V134.36a4.57,4.57,0,0,0,4.55,4.56h94.4a4.57,4.57,0,0,0,4.57-4.56V11.54Z"/><path class="cls-2" d="M265.13,129.25H203.21a5,5,0,0,1-4.93-4.91v-3a5,5,0,0,1,5-5H265.2a5,5,0,0,1,5,5h0v3A5,5,0,0,1,265.13,129.25Zm-61.92-11.8a3.92,3.92,0,0,0-3.91,3.94v3a4,4,0,0,0,3.94,3.94h61.92a4,4,0,0,0,3.95-3.94v-3a3.93,3.93,0,0,0-3.94-3.94h-62Z"/><rect class="cls-4" x="196.89" y="44.82" width="26.2" height="59.69"/><rect class="cls-4" x="212.18" y="58.8" width="8.28" height="45.71"/><rect class="cls-3" x="227.45" y="49.69" width="31.4" height="54.82"/><rect class="cls-3" x="242.74" y="66.21" width="8.28" height="38.3"/><rect class="cls-3" x="258.02" y="49.69" width="8.28" height="54.82"/><path class="cls-2" d="M269.29,24.43a.29.29,0,0,1,.28-.28h7.79a.29.29,0,0,1,.28.28.3.3,0,0,1-.28.28h-7.8A.28.28,0,0,1,269.29,24.43Z"/><path class="cls-2" d="M272,26.77a.29.29,0,0,1,.28-.28h5.08a.29.29,0,0,1,.28.28.3.3,0,0,1-.28.28h-5.08A.3.3,0,0,1,272,26.77Z"/><path class="cls-2" d="M272,28.9a.29.29,0,0,1,.28-.28h5.08a.29.29,0,0,1,.28.28.3.3,0,0,1-.28.28h-5.08A.3.3,0,0,1,272,28.9Z"/><path class="cls-4" d="M273.39,105H190.16a.47.47,0,0,1-.48-.48h0a.48.48,0,0,1,.48-.46h83.23a.49.49,0,0,1,.49.48h0a.47.47,0,0,1-.49.47h0Z"/><path class="cls-4" d="M232.3,36.3a1.87,1.87,0,1,1,1.87-1.87h0A1.87,1.87,0,0,1,232.3,36.3Zm0-2.76a.9.9,0,0,0,0,1.8.91.91,0,0,0,.89-.9h0a.89.89,0,0,0-.89-.89h0Z"/><path class="cls-1" d="M187,.51h94.35a5.07,5.07,0,0,1,5.07,5.07h0V11H182V5.58A5.06,5.06,0,0,1,187,.51Z"/><path class="cls-2" d="M286.43,11.54H182a.51.51,0,0,1-.51-.51V5.58A5.59,5.59,0,0,1,187,0h94.4A5.59,5.59,0,0,1,287,5.58h0V11a.5.5,0,0,1-.47.53h-.1Zm-104-1h103.5v-5A4.6,4.6,0,0,0,281.36,1H187a4.56,4.56,0,0,0-4.55,4.57h0Z"/><rect class="cls-1" x="0.51" y="63.26" width="77.35" height="95.04" rx="3.73"/><path class="cls-2" d="M74.14,158.85H4.23A4.23,4.23,0,0,1,0,154.62H0V67a4.25,4.25,0,0,1,4.23-4.23H74.14A4.25,4.25,0,0,1,78.37,67v87.59a4.25,4.25,0,0,1-4.2,4.27ZM4.23,63.77A3.25,3.25,0,0,0,1,67v87.59a3.22,3.22,0,0,0,3.19,3.25h70a3.23,3.23,0,0,0,3.21-3.22V67a3.24,3.24,0,0,0-3.21-3.22Z"/><path class="cls-1" d="M118.81,87.09c-6-1.8-9.14-8.79-10.73-14.36-1.79-6.32-3.89-11.5-1.34-18.08a5.63,5.63,0,0,1,3-3.53,3.29,3.29,0,0,0,1.09-.38,2.55,2.55,0,0,0,.58-.94C115,41.23,125.32,41,133,42.2c4.46.7,10.26,2.74,11.65,7.33,2.55,8.46.39,17.65-4.29,25C136.05,81.36,127.76,89.83,118.81,87.09Z"/><path class="cls-2" d="M122.23,88.1a11.7,11.7,0,0,1-3.57-.53h0c-6.24-1.87-9.47-9-11.07-14.69-.2-.72-.41-1.43-.62-2.13-1.62-5.52-3-10.29-.71-16.24.82-2.15,2-3.44,3.41-3.84l.31-.07a1,1,0,0,0,1-.89c3.79-8.89,14.21-9.23,22.21-8,3,.47,10.41,2.19,12.07,7.68,2.41,8,.83,17.26-4.36,25.38C136.52,81.58,129.6,88.1,122.23,88.1Zm4.5-45.92c-6.09,0-12.18,1.73-14.79,7.81a2.47,2.47,0,0,1-.73,1.15,2.3,2.3,0,0,1-1,.4l-.26.07c-1.1.31-2,1.39-2.74,3.22-2.19,5.67-.83,10.29.75,15.63.21.7.41,1.41.62,2.14,1.54,5.42,4.58,12.26,10.39,14h0c8.11,2.4,16.23-4.8,21-12.38,5-7.84,6.57-16.78,4.23-24.55-1.49-4.93-8.36-6.51-11.24-7a41.52,41.52,0,0,0-6.3-.53Z"/><path class="cls-1" d="M146,70s6.4,8,5.4,9.89-5,1-5,1"/><path class="cls-2" d="M148.28,81.62a9.64,9.64,0,0,1-2-.21.5.5,0,0,1-.4-.6h0a.5.5,0,0,1,.58-.4h0c1,.2,3.77.47,4.44-.79.53-1-2.38-5.62-5.35-9.34a.51.51,0,1,1,.79-.64c1.56,2,6.54,8.43,5.45,10.45C151.15,81.33,149.56,81.62,148.28,81.62Z"/><path class="cls-1" d="M143.73,58.81c3.86,2.6,3.38,8.89,3.72,12.92q.7,8.49,1,17c.14,3.6-9.13,4.53-10.89,3.6l2.74,14.06-20.18-5.72-.87-16.43s6.09-.52,9.14-8.12,1.79-18.88,1.79-18.88S140,56.26,143.73,58.81Z"/><path class="cls-2" d="M140.31,106.93h-.14L120,101.21a.5.5,0,0,1-.37-.46l-.87-16.44a.51.51,0,0,1,.46-.53c.24,0,5.88-.6,8.69-7.84,2.89-7.45,1.78-18.53,1.77-18.64a.57.57,0,0,1,.11-.38.5.5,0,0,1,.34-.18c.41,0,10.06-1,13.93,1.66h0c3.42,2.32,3.63,7.19,3.8,11.17,0,.77.08,1.51.14,2.19.46,5.66.81,11.4,1,17a3.06,3.06,0,0,1-1.74,2.73,15.85,15.85,0,0,1-9,1.62l2.59,13.19a.53.53,0,0,1-.15.48A.51.51,0,0,1,140.31,106.93Zm-19.73-6.62,19.07,5.4-2.57-13.24a.48.48,0,0,1,.19-.51.52.52,0,0,1,.54,0c1.12.6,6.34.28,8.88-1.3.87-.55,1.3-1.17,1.27-1.84-.21-5.64-.55-11.37-1-17-.06-.69-.09-1.44-.13-2.23-.16-3.7-.37-8.29-3.36-10.31h0c-3-2.1-10.73-1.69-12.76-1.55.19,2.33.78,11.78-1.88,18.61s-7.48,8.12-9,8.41Z"/><path class="cls-1" d="M148,84.55s-5.57,0-6.9-7.51"/><path class="cls-2" d="M148,85.06c-.06,0-6-.09-7.4-7.93a.51.51,0,0,1,1-.2v0c1.23,7,6.19,7.1,6.4,7.1a.5.5,0,0,1,.4.6.51.51,0,0,1-.4.4Z"/><path class="cls-1" d="M135.43,74.6a7.72,7.72,0,0,0-1.94-3.73,11,11,0,0,0-2.29-2.39,3.75,3.75,0,0,0-3.14-.66,3.52,3.52,0,0,0-2,2,6.54,6.54,0,0,0-.45,2.87A12.17,12.17,0,0,0,132.19,83l-.33-.32"/><path class="cls-2" d="M132.13,83.42a.43.43,0,0,1-.22-.06A12.76,12.76,0,0,1,125,72.65a7,7,0,0,1,.5-3,3.93,3.93,0,0,1,2.38-2.24,4.15,4.15,0,0,1,3.57.73,11.52,11.52,0,0,1,2.4,2.48,8.13,8.13,0,0,1,2,4,.51.51,0,0,1-1,.11A7.5,7.5,0,0,0,133,71.24,10.67,10.67,0,0,0,130.83,69a3.23,3.23,0,0,0-2.7-.59A3,3,0,0,0,126.46,70a6,6,0,0,0-.42,2.65,11.76,11.76,0,0,0,5.67,9.48.45.45,0,0,1,.41.13l.35.3a.51.51,0,0,1,.05.72h0a.51.51,0,0,1-.4.17Z"/><path class="cls-2" d="M137.57,92.36s-5-1-7.5-4.16c0,0,.9,7.51,8.51,9.34Z"/><path class="cls-2" d="M138.58,98.05h-.12c-7.87-1.88-8.89-9.68-8.9-9.77a.51.51,0,0,1,.31-.52.48.48,0,0,1,.59.14c2.4,2.93,7.16,4,7.21,4a.51.51,0,0,1,.4.4l1,5.17a.52.52,0,0,1-.4.6h-.1ZM131,89.81a10.45,10.45,0,0,0,7,7l-.79-4.06A16.73,16.73,0,0,1,131,89.83Z"/><ellipse class="cls-2" cx="142.39" cy="66.35" rx="2.03" ry="0.8" transform="translate(65.26 203.2) rotate(-85.58)"/><path class="cls-1" d="M89.56,134.33,79.15,152.6,52,124.76s2.19-11.82-.73-10.88a9.81,9.81,0,0,0-4.61,3.44s-2.41-16.24-8.74-10.9-3.42,14.72,1.38,23.73c3.56,6.69,35.22,55.48,44,53.52S113,137.4,113,137.4Z"/><path class="cls-1" d="M168.9,126.13s21-5.44,28.85-10C206.38,111,222.63,79,227.91,71a48.52,48.52,0,0,0,6.3-14.32c.61-2.28.89-3.92-.24-6.09-.24-.46-4-4.54-4.13-4.06,1-2.85,2-5.56,3.1-8.39.29-.78.5-1.76-.1-2.33a1.5,1.5,0,0,0-1.84,0,4.19,4.19,0,0,0-1.25,1.52l-8.63,15A11.66,11.66,0,0,0,220,46.91a1.7,1.7,0,0,0-.64-.83c-.94-.53-1.86.76-2.15,1.8-1.53,5.4-.43,11.9-3.73,16.68C211,68.2,188.63,95,188.63,95l-19.73,5.08"/><path class="cls-2" d="M168.9,126.64a.52.52,0,0,1-.58-.44.51.51,0,0,1,.44-.57c.22,0,21-5.46,28.74-10,6.24-3.68,16.85-22.26,23.87-34.56,2.54-4.44,4.72-8.27,6.09-10.38a48.07,48.07,0,0,0,6.22-14.21c.58-2.13.89-3.68-.2-5.76A28.85,28.85,0,0,0,229.87,47a.45.45,0,0,1-.23,0,.51.51,0,0,1-.31-.65h0c.62-1.82,1.31-3.62,2-5.36.38-1,.76-2,1.13-3.05s.35-1.49,0-1.79a1,1,0,0,0-1.2,0,4.27,4.27,0,0,0-1.08,1.38l-8.66,15a.49.49,0,0,1-.58.23.54.54,0,0,1-.3-.45,11.36,11.36,0,0,0-1-5.07,1.33,1.33,0,0,0-.44-.6.35.35,0,0,0-.37,0,2.45,2.45,0,0,0-1,1.51,37.12,37.12,0,0,0-1,6.29c-.33,3.66-.69,7.44-2.84,10.54-2.5,3.62-24,29.35-24.91,30.45a.44.44,0,0,1-.26.16l-19.82,5a.52.52,0,0,1-.62-.37.51.51,0,0,1,.36-.62h0l19.58-5.07c1.66-2,22.33-26.8,24.75-30.25,2-2.88,2.33-6.54,2.67-10.06a36.39,36.39,0,0,1,1-6.48,3.41,3.41,0,0,1,1.64-2.18,1.38,1.38,0,0,1,1.25.09,2,2,0,0,1,.85,1,12,12,0,0,1,1.06,3.8L229.3,37a4.93,4.93,0,0,1,1.43-1.71,2,2,0,0,1,2.48.06c.63.6.71,1.58.22,2.89-.38,1-.76,2-1.15,3-.6,1.58-1.21,3.22-1.79,4.87a24.75,24.75,0,0,1,3.93,4.06c1.25,2.4.91,4.2.29,6.5a49.46,49.46,0,0,1-6.36,14.46c-1.39,2.08-3.56,5.9-6.09,10.31-7.51,13.14-17.77,31.13-24.25,34.94-7.83,4.61-28.13,9.89-29,10.15Z"/><path class="cls-5" d="M173.92,213.66l-6.57-29.86-65.49,17.57s.13,4.9.31,12.27Z"/><path class="cls-5" d="M97.27,147.91h0a.52.52,0,0,1-.49-.53h0c0-1.12.88-27.54,4.51-36.78a.5.5,0,0,1,.64-.29h0a.49.49,0,0,1,.29.62h0c-3.55,9.07-4.42,36.17-4.43,36.44a.53.53,0,0,1-.52.54Z"/><path class="cls-1" d="M237.41,203.35H200.57a3.88,3.88,0,0,1-3.88-3.87V158.77a3.9,3.9,0,0,1,3.88-3.89h32.48l8.21,8v36.54A3.89,3.89,0,0,1,237.41,203.35Z"/><path class="cls-2" d="M237.41,203.85H200.57a4.41,4.41,0,0,1-4.39-4.39h0V158.77a4.4,4.4,0,0,1,4.39-4.4h32.48a.54.54,0,0,1,.36.14l8.21,8a.48.48,0,0,1,.15.36v36.54a4.4,4.4,0,0,1-4.34,4.44Zm-36.84-48.46a3.4,3.4,0,0,0-3.38,3.38v40.68a3.4,3.4,0,0,0,3.38,3.38h36.84a3.4,3.4,0,0,0,3.38-3.38V163.09l-7.91-7.7Z"/><circle class="cls-3" cx="188.28" cy="5.91" r="1.71"/><circle class="cls-4" cx="194.2" cy="5.91" r="1.71"/><circle class="cls-4" cx="200.12" cy="5.91" r="1.71"/><polygon class="cls-3" points="233.09 154.88 233.09 163.12 241.3 162.88 233.09 154.88"/><path class="cls-2" d="M233.08,163.63a.48.48,0,0,1-.34-.14.52.52,0,0,1-.16-.37v-8.24a.51.51,0,0,1,.51-.51.5.5,0,0,1,.35.14l8.21,8a.51.51,0,0,1,0,.72.47.47,0,0,1-.33.14l-8.21.25Zm.51-7.54v6.51l6.49-.19Z"/><rect class="cls-1" x="12.24" y="93.68" width="20.97" height="22.18" rx="3"/><rect class="cls-4" x="8.12" y="131.36" width="19.84" height="17.87" rx="2.29"/><rect class="cls-4" x="30.48" y="131.36" width="19.84" height="17.87" rx="2.29"/><rect class="cls-4" x="52.83" y="131.36" width="19.84" height="17.87" rx="2.29"/><rect class="cls-3" x="8.96" y="72.35" width="64.55" height="6.68" rx="2"/><rect class="cls-4" x="8.96" y="91.38" width="64.55" height="27.24" rx="2"/><path class="cls-3" d="M17.79,101l4.5,4.51a.21.21,0,0,0,.18.07h6.91a6.66,6.66,0,1,1-13.32-.26c0-.07,0-.14,0-.21A6.59,6.59,0,0,1,17.73,101Z"/><path class="cls-1" d="M23,98.64v6.43h6.22c.14,0,.14,0,.13-.13a6.72,6.72,0,0,0-4-5.71,6.79,6.79,0,0,0-2.16-.54Z"/><path class="cls-1" d="M22.49,105V98.65a6.78,6.78,0,0,0-4.44,1.91Z"/><rect class="cls-3" x="42.38" y="176.32" width="15.97" height="15.97" rx="2.77"/><rect class="cls-1" x="39.45" y="171.2" width="15.97" height="15.97" rx="2.6"/><path class="cls-2" d="M52.82,187.67H42.05a3.1,3.1,0,0,1-3.12-3.08h0V173.8A3.1,3.1,0,0,1,42,170.69H52.8a3.11,3.11,0,0,1,3.11,3.11h0v10.77A3.1,3.1,0,0,1,52.82,187.67Zm-10.77-16a2.1,2.1,0,0,0-2.11,2.07h0v10.79A2.09,2.09,0,0,0,42,186.66H52.8a2.1,2.1,0,0,0,2.09-2.09V173.8a2.08,2.08,0,0,0-2.07-2.09h0Z"/><rect class="cls-4" x="25.08" y="22.14" width="44.7" height="26.63"/><path class="cls-2" d="M82.84,184.22c-10,0-40.78-47.86-44-53.79-4-7.52-8.48-18.27-1.25-24.36,1.34-1.14,2.64-1.48,3.86-1,3.33,1.26,5,8.34,5.5,11.17a9.78,9.78,0,0,1,4.16-2.74,1.25,1.25,0,0,1,1.28.23c1.7,1.49.51,8.89.15,11l26.46,27,10.09-17.69a.49.49,0,0,1,.5-.25l23.35,3a.5.5,0,0,1,.43.56.75.75,0,0,1-.05.16c-.87,1.82-21.08,44.57-30,46.55A4.42,4.42,0,0,1,82.84,184.22ZM40.41,105.83a3.43,3.43,0,0,0-2.13,1c-5.08,4.3-4.6,11.65,1.51,23.11,3.87,7.27,35.28,55.06,43.43,53.27,7.88-1.76,26.39-40,29-45.37l-22.33-3-10.25,18a.51.51,0,0,1-.38.25.47.47,0,0,1-.43-.15L51.7,125.16a.53.53,0,0,1-.13-.45c.69-3.74,1.23-9.4.24-10.27a.31.31,0,0,0-.32,0,9.44,9.44,0,0,0-4.34,3.24.53.53,0,0,1-.54.21.5.5,0,0,1-.39-.41c-.41-2.82-2.12-10.34-5.07-11.43A2.11,2.11,0,0,0,40.41,105.83Z"/><path class="cls-3" d="M187.12,92.87s-74.53-1.57-84,11.81A189.25,189.25,0,0,0,84.74,140l13.4,12.52a488.64,488.64,0,0,0,2.7,53c23.09,4.06,70.93-14.41,70.52-14.6L165.27,129l28.52-8.81Z"/><circle class="cls-4" cx="201.03" cy="27.05" r="6.11"/><circle class="cls-3" cx="201.03" cy="25.01" r="1.84"/><path class="cls-3" d="M197.68,30.58a3.35,3.35,0,1,1,6.7,0Z"/><rect class="cls-3" x="201.13" y="166.78" width="35.36" height="9.32" rx="1"/><rect class="cls-6" x="201.13" y="177.76" width="35.36" height="9.32" rx="1"/><rect class="cls-6" x="201.13" y="188.74" width="35.36" height="9.32" rx="1"/><path class="cls-1" d="M80.69,182.65s-10.21-8.37-25.8-30.44C43.62,136.26,42.11,134,42.13,134l.25.31-7-15.21a12,12,0,0,1-.58-5.59c.11-.75.85-5.47,4.46-7.35a2.7,2.7,0,0,1,1.36-.47c3.31.08,5.21,9.62,5.32,10.18,1.13,3.73,1.86,6.13,1.87,6.13l-1.19-4.1c1.66-1.93,3.89-4.18,5.07-3.63,1.6.75-.18,6.08,0,9.56.08,1.1,2,3.61,4.69,6.69,5,5.61,12.68,13.1,17.1,17.4"/></g></g></svg>